<svg width="400" height="200" viewBox="0 0 400 200" fill="none" xmlns="http://www.w3.org/2000/svg">
  <defs>
    <linearGradient id="bg" x1="0%" y1="0%" x2="100%" y2="100%">
      <stop offset="0%" style="stop-color:#2563eb"/>
      <stop offset="100%" style="stop-color:#1d4ed8"/>
    </linearGradient>
  </defs>
  <rect width="120" height="120" rx="28" fill="url(#bg)"/>
  <path d="M60 20L95 38V72C95 95 80 108 60 115C40 108 25 95 25 72V38L60 20Z" fill="white"/>
  <path d="M60 28L88 42V72C88 90 78 100 60 105C42 100 32 90 32 72V42L60 28Z" fill="#2563eb"/>
  <path d="M48 72L56 80L74 62" stroke="white" stroke-width="5" stroke-linecap="round" stroke-linejoin="round"/>
  <text x="155" y="65" font-family="Arial, sans-serif" font-size="36" font-weight="bold" fill="#2563eb">Insure</text>
  <text x="155" y="100" font-family="Arial, sans-serif" font-size="36" font-weight="bold" fill="#1d4ed8">CRM</text>
  <text x="155" y="130" font-family="Arial, sans-serif" font-size="14" fill="#6b7280">Smart Insurance Support</text>
</svg>
