<svg width="200" height="200" viewBox="0 0 200 200" fill="none" xmlns="http://www.w3.org/2000/svg">
  <defs>
    <linearGradient id="bg" x1="0%" y1="0%" x2="100%" y2="100%">
      <stop offset="0%" style="stop-color:#2563eb"/>
      <stop offset="100%" style="stop-color:#1d4ed8"/>
    </linearGradient>
    <linearGradient id="shield" x1="0%" y1="0%" x2="0%" y2="100%">
      <stop offset="0%" style="stop-color:#ffffff"/>
      <stop offset="100%" style="stop-color:#dbeafe"/>
    </linearGradient>
  </defs>
  <rect width="200" height="200" rx="40" fill="url(#bg)"/>
  <path d="M100 35L155 60V105C155 140 130 160 100 170C70 160 45 140 45 105V60L100 35Z" fill="url(#shield)" stroke="white" stroke-width="2"/>
  <path d="M100 50L145 72V105C145 135 125 152 100 160C75 152 55 135 55 105V72L100 50Z" fill="#2563eb"/>
  <path d="M80 105L92 117L125 84" stroke="white" stroke-width="8" stroke-linecap="round" stroke-linejoin="round"/>
  <text x="100" y="180" text-anchor="middle" font-family="Arial, sans-serif" font-size="14" font-weight="bold" fill="white" letter-spacing="1">INSURECRM</text>
</svg>
